<?xml version="1.0" encoding="UTF-8" standalone="no"?>
<!-- Created with Inkscape (http://www.inkscape.org/) -->

<svg
   xmlns:dc="http://purl.org/dc/elements/1.1/"
   xmlns:cc="http://creativecommons.org/ns#"
   xmlns:rdf="http://www.w3.org/1999/02/22-rdf-syntax-ns#"
   xmlns:svg="http://www.w3.org/2000/svg"
   xmlns="http://www.w3.org/2000/svg"
   xmlns:xlink="http://www.w3.org/1999/xlink"
   xmlns:sodipodi="http://sodipodi.sourceforge.net/DTD/sodipodi-0.dtd"
   xmlns:inkscape="http://www.inkscape.org/namespaces/inkscape"
   width="200mm"
   height="200mm"
   viewBox="0 0 200 200"
   version="1.1"
   id="svg8"
   inkscape:version="0.92.2 (5c3e80d, 2017-08-06)"
   sodipodi:docname="icon.svg"
   inkscape:export-filename="/home/andrei/Dev/containersearch/icon-128.png"
   inkscape:export-xdpi="16.26"
   inkscape:export-ydpi="16.26">
  <defs
     id="defs2">
    <clipPath
       clipPathUnits="userSpaceOnUse"
       id="clipPath994">
      <use
         x="0"
         y="0"
         xlink:href="#g990"
         id="use996"
         width="100%"
         height="100%" />
    </clipPath>
  </defs>
  <sodipodi:namedview
     id="base"
     pagecolor="#ffffff"
     bordercolor="#666666"
     borderopacity="1.0"
     inkscape:pageopacity="0.0"
     inkscape:pageshadow="2"
     inkscape:zoom="0.49497475"
     inkscape:cx="12.646782"
     inkscape:cy="295.29469"
     inkscape:document-units="mm"
     inkscape:current-layer="layer1"
     showgrid="false"
     inkscape:window-width="1920"
     inkscape:window-height="1053"
     inkscape:window-x="0"
     inkscape:window-y="27"
     inkscape:window-maximized="1"
     borderlayer="true"
     inkscape:showpageshadow="false" />
  <metadata
     id="metadata5">
    <rdf:RDF>
      <cc:Work
         rdf:about="">
        <dc:format>image/svg+xml</dc:format>
        <dc:type
           rdf:resource="http://purl.org/dc/dcmitype/StillImage" />
        <dc:title></dc:title>
      </cc:Work>
    </rdf:RDF>
  </metadata>
  <g
     inkscape:groupmode="layer"
     id="layer2"
     inkscape:label="Layer 2">
    <rect
       style="fill:#409bb2;fill-opacity:1;stroke:#3e1137;stroke-width:0.28285399;stroke-opacity:1"
       id="rect998"
       width="199.71715"
       height="199.71715"
       x="0.141427"
       y="0.14142269"
       ry="65.962341"
       rx="0" />
  </g>
  <g
     inkscape:label="Layer 1"
     inkscape:groupmode="layer"
     id="layer1"
     transform="translate(0,-97)">
    <g
       id="g992"
       clip-path="url(#clipPath994)"
       transform="matrix(1.0872237,0,0,1.0872237,-7.4950811,-9.615808)"
       style="stroke:#3e1137;stroke-opacity:1">
      <g
         inkscape:label="Clip"
         id="g990"
         style="stroke:#3e1137;stroke-opacity:1">
        <g
           transform="matrix(1.1639357,0,0,1.1639357,26.755135,108.91555)"
           id="g953"
           style="stroke:#3e1137;stroke-opacity:1">
          <g
             id="g911"
             style="stroke:#3e1137;stroke-opacity:1">
            <path
               inkscape:connector-curvature="0"
               d="m 30.7,37.5 c 0,-0.4 -0.3,-0.7 -0.7,-0.7 -0.4,0 -0.7,0.3 -0.7,0.7 v 9.9 c 0,0.4 0.3,0.7 0.7,0.7 0.4,0 0.7,-0.3 0.7,-0.7 z"
               id="path861"
               style="stroke:#3e1137;stroke-opacity:1" />
            <path
               inkscape:connector-curvature="0"
               d="m 29.9,51.3 c -0.4,0 -0.7,0.3 -0.7,0.7 v 3.5 c 0,0.4 0.3,0.7 0.7,0.7 0.4,0 0.7,-0.3 0.7,-0.7 V 52 c 0.1,-0.4 -0.3,-0.7 -0.7,-0.7 z"
               id="path863"
               style="stroke:#3e1137;stroke-opacity:1" />
            <path
               inkscape:connector-curvature="0"
               d="m 117,85.9 c 0.4,0 0.7,-0.3 0.7,-0.7 v -9.9 c 0,-0.4 -0.3,-0.7 -0.7,-0.7 -0.4,0 -0.7,0.3 -0.7,0.7 v 9.9 c 0,0.3 0.3,0.7 0.7,0.7 z"
               id="path865"
               style="stroke:#3e1137;stroke-opacity:1" />
            <path
               inkscape:connector-curvature="0"
               d="m 117,94.1 c 0.4,0 0.7,-0.3 0.7,-0.7 v -3.5 c 0,-0.4 -0.3,-0.7 -0.7,-0.7 -0.4,0 -0.7,0.3 -0.7,0.7 v 3.5 c 0,0.3 0.3,0.7 0.7,0.7 z"
               id="path867"
               style="stroke:#3e1137;stroke-opacity:1" />
            <path
               inkscape:connector-curvature="0"
               d="m 89.1,15.5 c 2.1,0 3.8,-1.7 3.8,-3.8 0,-2.1 -1.7,-3.8 -3.8,-3.8 -2.1,0 -3.8,1.7 -3.8,3.8 0,2.1 1.7,3.8 3.8,3.8 z m 0,-6.1 c 1.3,0 2.3,1 2.3,2.3 0,1.3 -1,2.3 -2.3,2.3 -1.3,0 -2.3,-1 -2.3,-2.3 0,-1.2 1,-2.3 2.3,-2.3 z"
               id="path869"
               style="stroke:#3e1137;stroke-opacity:1" />
            <path
               inkscape:connector-curvature="0"
               d="M 11,89.8 C 11,87.7 9.3,86 7.2,86 c -2.1,0 -3.8,1.7 -3.8,3.8 0,2.1 1.7,3.8 3.8,3.8 2.1,0 3.8,-1.7 3.8,-3.8 z m -3.8,2.3 c -1.3,0 -2.3,-1 -2.3,-2.3 0,-1.3 1,-2.3 2.3,-2.3 1.3,0 2.3,1 2.3,2.3 0,1.3 -1,2.3 -2.3,2.3 z"
               id="path871"
               style="stroke:#3e1137;stroke-opacity:1" />
            <path
               inkscape:connector-curvature="0"
               d="m 31.4,16.9 c 0,0.4 0.3,0.7 0.7,0.7 h 12.3 c 0.4,0 0.7,-0.3 0.7,-0.7 0,-0.4 -0.3,-0.7 -0.7,-0.7 H 32.1 c -0.4,-0.1 -0.7,0.3 -0.7,0.7 z"
               id="path873"
               style="stroke:#3e1137;stroke-opacity:1" />
            <path
               inkscape:connector-curvature="0"
               d="m 24,17.6 h 4 c 0.4,0 0.7,-0.3 0.7,-0.7 0,-0.4 -0.3,-0.7 -0.7,-0.7 h -4 c -0.4,0 -0.7,0.3 -0.7,0.7 0,0.4 0.3,0.7 0.7,0.7 z"
               id="path875"
               style="stroke:#3e1137;stroke-opacity:1" />
            <path
               inkscape:connector-curvature="0"
               d="m 24,13.4 h 8.6 c 0.4,0 0.7,-0.3 0.7,-0.7 C 33.3,12.3 33,12 32.6,12 H 24 c -0.4,0 -0.7,0.3 -0.7,0.7 0,0.3 0.3,0.7 0.7,0.7 z"
               id="path877"
               style="stroke:#3e1137;stroke-opacity:1" />
            <path
               inkscape:connector-curvature="0"
               d="m 36.3,13.4 h 2.8 c 0.4,0 0.7,-0.3 0.7,-0.7 0,-0.4 -0.3,-0.7 -0.7,-0.7 h -2.8 c -0.4,0 -0.7,0.3 -0.7,0.7 0,0.3 0.3,0.7 0.7,0.7 z"
               id="path879"
               style="stroke:#3e1137;stroke-opacity:1" />
            <path
               inkscape:connector-curvature="0"
               d="m 116.5,122.5 c 0,-0.4 -0.3,-0.7 -0.7,-0.7 h -12.3 c -0.4,0 -0.7,0.3 -0.7,0.7 0,0.4 0.3,0.7 0.7,0.7 h 12.3 c 0.4,0.1 0.7,-0.3 0.7,-0.7 z"
               id="path881"
               style="stroke:#3e1137;stroke-opacity:1" />
            <path
               inkscape:connector-curvature="0"
               d="m 119.8,123.3 h 4 c 0.4,0 0.7,-0.3 0.7,-0.7 0,-0.4 -0.3,-0.7 -0.7,-0.7 h -4 c -0.4,0 -0.7,0.3 -0.7,0.7 0,0.3 0.3,0.7 0.7,0.7 z"
               id="path883"
               style="stroke:#3e1137;stroke-opacity:1" />
            <path
               inkscape:connector-curvature="0"
               d="m 123.8,126 h -8.6 c -0.4,0 -0.7,0.3 -0.7,0.7 0,0.4 0.3,0.7 0.7,0.7 h 8.6 c 0.4,0 0.7,-0.3 0.7,-0.7 0,-0.3 -0.3,-0.7 -0.7,-0.7 z"
               id="path885"
               style="stroke:#3e1137;stroke-opacity:1" />
            <path
               inkscape:connector-curvature="0"
               d="m 111.5,126 h -2.8 c -0.4,0 -0.7,0.3 -0.7,0.7 0,0.4 0.3,0.7 0.7,0.7 h 2.8 c 0.4,0 0.7,-0.3 0.7,-0.7 0,-0.3 -0.3,-0.7 -0.7,-0.7 z"
               id="path887"
               style="stroke:#3e1137;stroke-opacity:1" />
            <path
               inkscape:connector-curvature="0"
               d="m 104.5,40.6 c 0.1,0.1 0.3,0.2 0.5,0.2 0.2,0 0.4,-0.1 0.5,-0.2 0.3,-0.3 0.3,-0.8 0,-1 L 103.9,38 c -0.3,-0.3 -0.8,-0.3 -1,0 -0.2,0.3 -0.3,0.8 0,1 z"
               id="path889"
               style="stroke:#3e1137;stroke-opacity:1" />
            <path
               inkscape:connector-curvature="0"
               d="m 109.6,45.7 c 0.1,0.1 0.3,0.2 0.5,0.2 0.2,0 0.4,-0.1 0.5,-0.2 0.3,-0.3 0.3,-0.8 0,-1 L 109,43.1 c -0.3,-0.3 -0.8,-0.3 -1,0 -0.3,0.3 -0.3,0.8 0,1 z"
               id="path891"
               style="stroke:#3e1137;stroke-opacity:1" />
            <path
               inkscape:connector-curvature="0"
               d="m 103.4,46 c 0.2,0 0.4,-0.1 0.5,-0.2 l 1.6,-1.6 c 0.3,-0.3 0.3,-0.8 0,-1 -0.3,-0.3 -0.8,-0.3 -1,0 l -1.6,1.6 c -0.3,0.3 -0.3,0.8 0,1 0.1,0.1 0.3,0.2 0.5,0.2 z"
               id="path893"
               style="stroke:#3e1137;stroke-opacity:1" />
            <path
               inkscape:connector-curvature="0"
               d="m 108.6,40.8 c 0.2,0 0.4,-0.1 0.5,-0.2 l 1.6,-1.6 c 0.3,-0.3 0.3,-0.8 0,-1 -0.3,-0.3 -0.8,-0.3 -1,0 l -1.6,1.6 c -0.3,0.3 -0.3,0.8 0,1 0.1,0.1 0.3,0.2 0.5,0.2 z"
               id="path895"
               style="stroke:#3e1137;stroke-opacity:1" />
            <path
               inkscape:connector-curvature="0"
               d="m 9.6,118.6 c -0.3,-0.3 -0.8,-0.3 -1,0 -0.3,0.3 -0.3,0.8 0,1 l 1.6,1.6 c 0.1,0.1 0.3,0.2 0.5,0.2 0.2,0 0.4,-0.1 0.5,-0.2 0.3,-0.3 0.3,-0.8 0,-1 z"
               id="path897"
               style="stroke:#3e1137;stroke-opacity:1" />
            <path
               inkscape:connector-curvature="0"
               d="m 14.7,123.8 c -0.3,-0.3 -0.8,-0.3 -1,0 -0.3,0.3 -0.3,0.8 0,1 l 1.6,1.6 c 0.1,0.1 0.3,0.2 0.5,0.2 0.2,0 0.4,-0.1 0.5,-0.2 0.3,-0.3 0.3,-0.8 0,-1 z"
               id="path899"
               style="stroke:#3e1137;stroke-opacity:1" />
            <path
               inkscape:connector-curvature="0"
               d="m 10.1,123.8 -1.6,1.6 c -0.3,0.3 -0.3,0.8 0,1 0.1,0.1 0.3,0.2 0.5,0.2 0.2,0 0.4,-0.1 0.5,-0.2 l 1.6,-1.6 c 0.3,-0.3 0.3,-0.8 0,-1 -0.2,-0.3 -0.7,-0.3 -1,0 z"
               id="path901"
               style="stroke:#3e1137;stroke-opacity:1" />
            <path
               inkscape:connector-curvature="0"
               d="m 15.3,118.6 -1.6,1.6 c -0.3,0.3 -0.3,0.8 0,1 0.1,0.1 0.3,0.2 0.5,0.2 0.2,0 0.4,-0.1 0.5,-0.2 l 1.6,-1.6 c 0.3,-0.3 0.3,-0.8 0,-1 -0.3,-0.2 -0.8,-0.2 -1,0 z"
               id="path903"
               style="stroke:#3e1137;stroke-opacity:1" />
            <path
               inkscape:connector-curvature="0"
               d="M 22.7,89.6 H 103 c 3.1,0 5.6,-2.5 5.6,-5.6 v -4.2 c 0,-0.4 -0.3,-0.7 -0.7,-0.7 h -24 L 71.6,66.8 c -0.3,-0.3 -0.8,-0.3 -1,0 -0.2,0.3 -0.3,0.8 0,1 L 81.8,79 H 43.9 L 56.6,66.3 c 1.8,1.5 4,2.3 6.3,2.3 2.6,0 5,-1 6.8,-2.8 1.8,-1.8 2.8,-4.3 2.8,-6.8 0,-2.5 -1,-5 -2.8,-6.8 -1.7,-1.7 -3.8,-2.6 -6.1,-2.8 v -9.9 h 2.6 c 0.4,0 0.7,-0.3 0.7,-0.7 V 31 c 0,-0.4 -0.3,-0.7 -0.7,-0.7 H 63.6 V 1.2 c 0,-0.4 -0.3,-0.7 -0.7,-0.7 -0.4,0 -0.7,0.3 -0.7,0.7 v 28.9 h -2.6 c -0.4,0 -0.7,0.3 -0.7,0.7 v 7.8 c 0,0.4 0.3,0.7 0.7,0.7 h 2.6 v 10.6 c 0,0.4 0.3,0.7 0.7,0.7 2.2,0 4.2,0.9 5.8,2.4 1.5,1.5 2.4,3.6 2.4,5.8 0,2.2 -0.9,4.2 -2.4,5.8 -1.5,1.5 -3.6,2.4 -5.8,2.4 -1.9,0 -3.8,-0.7 -5.3,-1.9 l 5.3,-5.3 3.6,3.6 c 0.3,0.3 0.8,0.3 1,0 0.3,-0.3 0.3,-0.8 0,-1 l -4.2,-4.2 c -0.3,-0.3 -0.8,-0.3 -1,0 L 56.5,64 c -1.2,-1.5 -1.9,-3.3 -1.9,-5.3 0,-0.4 -0.3,-0.7 -0.7,-0.7 -0.4,0 -0.7,0.3 -0.7,0.7 0,2.3 0.8,4.5 2.3,6.3 L 41.8,79 h -24 c -0.4,0 -0.7,0.3 -0.7,0.7 v 4.2 c -0.1,3.2 2.5,5.7 5.6,5.7 z m 37.5,-58 h 5.2 V 38 H 60.2 Z M 18.5,80.5 h 88.6 V 84 c 0,2.3 -1.9,4.2 -4.2,4.2 H 22.7 c -2.3,0 -4.2,-1.9 -4.2,-4.2 z"
               id="path905"
               style="stroke:#3e1137;stroke-opacity:1" />
            <path
               inkscape:connector-curvature="0"
               d="M 22.7,102.9 H 103 c 3.1,0 5.6,-2.5 5.6,-5.6 V 93 c 0,-0.4 -0.3,-0.7 -0.7,-0.7 H 17.8 c -0.4,0 -0.7,0.3 -0.7,0.7 v 4.2 c -0.1,3.1 2.5,5.7 5.6,5.7 z m -4.2,-9.2 h 88.6 v 3.5 c 0,2.3 -1.9,4.2 -4.2,4.2 H 22.7 c -2.3,0 -4.2,-1.9 -4.2,-4.2 z"
               id="path907"
               style="stroke:#3e1137;stroke-opacity:1" />
            <path
               inkscape:connector-curvature="0"
               d="m 108.6,110.5 v -4.2 c 0,-0.4 -0.3,-0.7 -0.7,-0.7 H 17.8 c -0.4,0 -0.7,0.3 -0.7,0.7 v 4.2 c 0,3.1 2.5,5.6 5.6,5.6 H 103 c 3.1,0.1 5.6,-2.5 5.6,-5.6 z m -90.1,0 V 107 h 88.6 v 3.5 c 0,2.3 -1.9,4.2 -4.2,4.2 H 22.7 c -2.3,0 -4.2,-1.9 -4.2,-4.2 z"
               id="path909"
               style="stroke:#3e1137;stroke-opacity:1" />
          </g>
        </g>
      </g>
    </g>
  </g>
</svg>
